<svg xmlns="http://www.w3.org/2000/svg" width="1600" height="900" viewBox="0 0 1600 900"><rect width="100%" height="100%" fill="white"/><style>text{font-family:Arial,sans-serif;fill:#111}.title{font-size:28px;font-weight:700}.h{font-size:18px;font-weight:700}.b{font-size:14px}.small{font-size:12px}.line{stroke:#333;stroke-width:2;fill:none}.comp{fill:#e8f3ff;stroke:#1473c9;stroke-width:2}.abs{fill:#fff0cf;stroke:#b47a00;stroke-width:2}.enum{fill:#f0e7ff;stroke:#7040c0;stroke-width:2}.service{fill:#eaf7ee;stroke:#29914a;stroke-width:2}</style><rect x="15" y="15" width="1570" height="55" rx="8" fill="#075a9c"/><text x="35" y="51" class="title" style="fill:white">UML Class Diagram — Movie Ticket Booking System</text><rect x="30" y="110" width="250" height="150" rx="5" class="comp"/><text x="155" y="138" text-anchor="middle" class="h">Cinema</text><line x1="30" y1="148" x2="280" y2="148" class="line"/><text x="42" y="168" class="b">- name : string</text><text x="42" y="187" class="b">- screens : vector&lt;Screen&gt;</text><text x="42" y="206" class="b">+ addScreen(...)</text><text x="42" y="225" class="b">+ getName()</text><text x="42" y="244" class="b">+ getScreens()</text><rect x="330" y="110" width="250" height="150" rx="5" class="comp"/><text x="455" y="138" text-anchor="middle" class="h">Screen</text><line x1="330" y1="148" x2="580" y2="148" class="line"/><text x="342" y="168" class="b">- screenNumber : int</text><text x="342" y="187" class="b">- seats : vector&lt;Seat&gt;</text><text x="342" y="206" class="b">+ Screen(...)</text><text x="342" y="225" class="b">+ getScreenNumber()</text><text x="342" y="244" class="b">+ getSeats()</text><rect x="630" y="110" width="250" height="150" rx="5" class="comp"/><text x="755" y="138" text-anchor="middle" class="h">Seat</text><line x1="630" y1="148" x2="880" y2="148" class="line"/><text x="642" y="168" class="b">- number : int</text><text x="642" y="187" class="b">- type : SeatType</text><text x="642" y="206" class="b">+ Seat(...)</text><text x="642" y="225" class="b">+ getNumber()</text><text x="642" y="244" class="b">+ getPrice()</text><rect x="920" y="110" width="200" height="125" rx="5" class="enum"/><text x="1020" y="137" text-anchor="middle" class="h">SeatType</text><text x="935" y="165" class="b">SILVER</text><text x="935" y="187" class="b">GOLD</text><text x="935" y="209" class="b">PLATINUM</text><rect x="1190" y="110" width="250" height="150" rx="5" class="comp"/><text x="1315" y="138" text-anchor="middle" class="h">Movie</text><line x1="1190" y1="148" x2="1440" y2="148" class="line"/><text x="1202" y="168" class="b">- title : string</text><text x="1202" y="187" class="b">- language : string</text><text x="1202" y="206" class="b">- durationMinutes : int</text><text x="1202" y="225" class="b">+ getTitle()</text><text x="1202" y="244" class="b">+ getDurationMinutes()</text><rect x="30" y="330" width="250" height="130" rx="5" class="comp"/><text x="155" y="358" text-anchor="middle" class="h">Customer</text><line x1="30" y1="368" x2="280" y2="368" class="line"/><text x="42" y="388" class="b">- name : string</text><text x="42" y="407" class="b">- phone : string</text><text x="42" y="426" class="b">+ getName()</text><text x="42" y="445" class="b">+ getPhone()</text><rect x="330" y="330" width="250" height="210" rx="5" class="comp"/><text x="455" y="358" text-anchor="middle" class="h">Booking</text><line x1="330" y1="368" x2="580" y2="368" class="line"/><text x="342" y="388" class="b">- bookingId : int</text><text x="342" y="407" class="b">- show : Show*</text><text x="342" y="426" class="b">- customer : Customer*</text><text x="342" y="445" class="b">- bookedSeats : vector&lt;ShowSeat*&gt;</text><text x="342" y="464" class="b">- amount : double</text><text x="342" y="483" class="b">- status : BookingStatus</text><text x="342" y="502" class="b">+ confirm()</text><text x="342" y="521" class="b">+ cancel()</text><rect x="630" y="330" width="300" height="190" rx="5" class="comp"/><text x="780" y="358" text-anchor="middle" class="h">Show</text><line x1="630" y1="368" x2="930" y2="368" class="line"/><text x="642" y="388" class="b">- showId : int</text><text x="642" y="407" class="b">- movie : Movie*</text><text x="642" y="426" class="b">- screen : Screen*</text><text x="642" y="445" class="b">- startTime : string</text><text x="642" y="464" class="b">- showSeats : vector&lt;ShowSeat&gt;</text><text x="642" y="483" class="b">+ findSeat(number)</text><text x="642" y="502" class="b">+ displaySeats()</text><rect x="1000" y="330" width="300" height="160" rx="5" class="comp"/><text x="1150" y="358" text-anchor="middle" class="h">ShowSeat</text><line x1="1000" y1="368" x2="1300" y2="368" class="line"/><text x="1012" y="388" class="b">- seat : Seat*</text><text x="1012" y="407" class="b">- seatStatus : SeatStatus</text><text x="1012" y="426" class="b">+ isAvailable()</text><text x="1012" y="445" class="b">+ bookSeat()</text><text x="1012" y="464" class="b">+ cancelSeat()</text><rect x="1320" y="330" width="200" height="115" rx="5" class="enum"/><text x="1420" y="357" text-anchor="middle" class="h">SeatStatus</text><text x="1335" y="385" class="b">AVAILABLE</text><text x="1335" y="407" class="b">BOOKED</text><rect x="30" y="490" width="250" height="120" rx="5" class="enum"/><text x="155" y="517" text-anchor="middle" class="h">BookingStatus</text><text x="45" y="545" class="b">PENDING</text><text x="45" y="567" class="b">CONFIRMED</text><text x="45" y="589" class="b">CANCELLED</text><rect x="330" y="620" width="280" height="120" rx="5" class="service"/><text x="470" y="648" text-anchor="middle" class="h">PriceCalculator</text><line x1="330" y1="658" x2="610" y2="658" class="line"/><text x="342" y="682" class="b">+ calculateTotal(seats) : double</text><rect x="650" y="620" width="260" height="120" rx="5" class="abs"/><text x="780" y="648" text-anchor="middle" class="h">Payment (abstract)</text><line x1="650" y1="658" x2="910" y2="658" class="line"/><text x="662" y="682" class="b">+ pay(amount) : bool</text><text x="662" y="701" class="b">+ getMethodName() : string</text><rect x="970" y="620" width="300" height="150" rx="5" class="service"/><text x="1120" y="648" text-anchor="middle" class="h">BookingService</text><line x1="970" y1="658" x2="1270" y2="658" class="line"/><text x="982" y="682" class="b">- priceCalculator</text><text x="982" y="701" class="b">+ createBooking(...)</text><text x="982" y="720" class="b">+ cancelBooking(id)</text><text x="982" y="739" class="b">+ showTicket(id)</text><rect x="1320" y="620" width="220" height="100" rx="5" class="service"/><text x="1430" y="648" text-anchor="middle" class="h">TicketPrinter</text><line x1="1320" y1="658" x2="1540" y2="658" class="line"/><text x="1332" y="684" class="b">+ print(booking)</text><rect x="550" y="790" width="220" height="80" rx="5" class="comp"/><text x="660" y="818" text-anchor="middle" class="h">UpiPayment</text><text x="562" y="844" class="b">+ pay(amount) : bool</text><rect x="790" y="790" width="220" height="80" rx="5" class="comp"/><text x="900" y="818" text-anchor="middle" class="h">CardPayment</text><text x="802" y="844" class="b">+ pay(amount) : bool</text><rect x="1030" y="790" width="220" height="80" rx="5" class="comp"/><text x="1140" y="818" text-anchor="middle" class="h">CashPayment</text><text x="1042" y="844" class="b">+ pay(amount) : bool</text><line x1="280" y1="185" x2="330" y2="185" class="line"/><text x="305" y="178" text-anchor="middle" class="small">1 — 1..*</text><line x1="580" y1="185" x2="630" y2="185" class="line"/><text x="605" y="178" text-anchor="middle" class="small">1 — 1..*</text><line x1="880" y1="185" x2="920" y2="185" class="line"/><text x="900" y="178" text-anchor="middle" class="small">type</text><line x1="930" y1="420" x2="1000" y2="420" class="line"/><text x="965" y="412" text-anchor="middle" class="small">1..*</text><line x1="1300" y1="405" x2="1320" y2="405" class="line"/><line x1="280" y1="395" x2="330" y2="395" class="line"/><text x="305" y="388" text-anchor="middle" class="small">1 — 0..*</text><line x1="580" y1="420" x2="630" y2="420" class="line"/><text x="605" y="412" text-anchor="middle" class="small">1</text><line x1="930" y1="185" x2="1190" y2="185" class="line"/><text x="1060" y="178" text-anchor="middle" class="small">aggregation</text><line x1="580" y1="680" x2="650" y2="680" class="line"/><text x="615" y="672" text-anchor="middle" class="small">uses</text><line x1="910" y1="680" x2="970" y2="680" class="line"/><text x="940" y="672" text-anchor="middle" class="small">uses</text><line x1="1270" y1="680" x2="1320" y2="680" class="line"/><text x="1295" y="672" text-anchor="middle" class="small">uses</text><line x1="780" y1="740" x2="660" y2="790" class="line"/><line x1="780" y1="740" x2="900" y2="790" class="line"/><line x1="780" y1="740" x2="1140" y2="790" class="line"/><polygon points="780,740 770,755 790,755" fill="white" stroke="#333" stroke-width="2"/><text x="35" y="850" class="small">Legend: ◆ Composition   ◇ Aggregation   → Association/Dependency   △ Inheritance   Multiplicity shown on relationships</text></svg>